<svg xmlns="http://www.w3.org/2000/svg" width="506.53" height="285.65" viewBox="0 0 506.53 285.65"><g id="b8862c5b-b8c5-46c5-b789-ad6678ea4baa" data-name="Layer 2"><g id="be2b57c0-8ae1-4d0c-9c26-9b131c102ea6" data-name="Layer 2"><g id="a5e57853-f453-45a2-9f69-f6927a6d71f5" data-name="Right Wing"><polygon points="324.38 25.8 413.33 29.51 413.33 20.1 324.1 24.95 324.38 25.8" stroke="#000" stroke-miterlimit="10" stroke-width="2"/><polygon points="504.87 26.24 414.11 29.95 414.11 20.54 505.16 25.39 504.87 26.24" stroke="#000" stroke-miterlimit="10" stroke-width="2"/></g><g id="b75c6013-3693-4e15-939e-602d651f7761" data-name="Left Wing"><polygon points="1.65 24.17 90.59 27.87 90.59 18.46 1.36 23.31 1.65 24.17" stroke="#000" stroke-miterlimit="10" stroke-width="2"/><polygon points="182.13 24.6 91.37 28.31 91.37 18.9 182.43 23.75 182.13 24.6" stroke="#000" stroke-miterlimit="10" stroke-width="2"/></g><g id="ad8894f3-0ea1-4b53-a266-17e033c667fc" data-name="Body"><path d="M148.57,265.54c0-80.07,61.23-144.86,136.9-144.86" fill="none" stroke="#000" stroke-miterlimit="10" stroke-width="20"/><path d="M378.18,261.5c0-73.64-64.39-133.23-144-133.23" fill="none" stroke="#000" stroke-miterlimit="10" stroke-width="20"/><rect x="210.07" y="54.29" width="92.37" height="93.22" rx="10" stroke="#000" stroke-miterlimit="10" stroke-width="20"/><rect x="72.38" y="40.04" width="40.2" height="77.83" rx="10" stroke="#000" stroke-miterlimit="10" stroke-width="10"/><rect x="396.8" y="40.18" width="40.2" height="77.83" rx="10" stroke="#000" stroke-miterlimit="10" stroke-width="10"/><rect x="63.26" y="65.83" width="60.72" height="35.07" stroke="#000" stroke-miterlimit="10" stroke-width="10"/><rect x="386.38" y="62.84" width="60.72" height="35.07" stroke="#000" stroke-miterlimit="10" stroke-width="10"/><path d="M161.12,280.49a12.32,12.32,0,0,0,2.77-7.68c0-7.8-7.66-14.12-17.11-14.12s-17.1,6.32-17.1,14.12a12.3,12.3,0,0,0,2.59,7.46C141.88,280.44,151.53,280.88,161.12,280.49Z" stroke="#000" stroke-miterlimit="10" stroke-width="10"/><path d="M392.47,279.77a12.34,12.34,0,0,0,2.76-7.68c0-7.79-7.66-14.11-17.1-14.11S361,264.3,361,272.09a12.26,12.26,0,0,0,2.6,7.46C373.22,279.73,382.87,280.17,392.47,279.77Z" stroke="#000" stroke-miterlimit="10" stroke-width="10"/><rect x="225.46" y="150.93" width="62.43" height="16.25" stroke="#000" stroke-miterlimit="10" stroke-width="10"/><rect x="246.85" y="166.33" width="22.24" height="35.92" stroke="#000" stroke-miterlimit="10" stroke-width="10"/><path d="M278.49,267.21H237.22c-4.92-2.62-6.91-5.25-10-9.25v-47c3.37-5.64,4.23-6.69,10-9.25h41.27c5.7,2.56,7.12,4.67,10,9.25v47C286.18,262.75,283.62,264.06,278.49,267.21Z" stroke="#000" stroke-miterlimit="10" stroke-width="10"/><circle cx="256.82" cy="222.23" r="14.25" stroke="#d0002c" stroke-miterlimit="10" stroke-width="5"/><path d="M196.1,99.64,134.26,83.39c-8.06.12-41.36-12.83,0-13.68h64.4c4.12,0,6.54,3.85,6,7.68C204.66,80.7,204.93,104.2,196.1,99.64Z" stroke="#000" stroke-miterlimit="10" stroke-width="5"/><path d="M314.72,96.47l65-16.25c8.47.12,43.45-12.83,0-13.68H312c-4.33,0-6.86,3.85-6.3,7.68C305.72,77.53,305.43,101,314.72,96.47Z" stroke="#000" stroke-miterlimit="10" stroke-width="5"/><rect x="252.26" y="12.97" width="5.7" height="36.21" stroke="#000" stroke-miterlimit="10" stroke-width="2"/><circle cx="254.97" cy="7.98" r="6.98" stroke="#ed1c24" stroke-miterlimit="10" stroke-width="2"/><rect x="413.62" y="29.79" width="1.71" height="6.56" stroke="#000" stroke-miterlimit="10" stroke-width="2"/><rect x="89.96" y="28.46" width="1.71" height="6.56" stroke="#000" stroke-miterlimit="10" stroke-width="2"/></g></g></g></svg>